<svg id="Layer_1" data-name="Layer 1" xmlns="http://www.w3.org/2000/svg" xmlns:xlink="http://www.w3.org/1999/xlink" viewBox="0 0 2000 2000"><defs><style>.cls-1{fill:none;}.cls-2{fill:url(#linear-gradient);}.cls-3{fill:#fff;}.cls-4{fill:url(#linear-gradient-2);}</style><linearGradient id="linear-gradient" x1="1137.99" y1="759.56" x2="1137.99" y2="1377.34" gradientUnits="userSpaceOnUse"><stop offset="0" stop-color="#60efff"/><stop offset="1" stop-color="#0061ff"/></linearGradient><linearGradient id="linear-gradient-2" x1="1258.58" y1="759.56" x2="1258.58" y2="1377.34" xlink:href="#linear-gradient"/></defs><polygon class="cls-1" points="982.22 1044.56 916.15 1238.06 916.15 1238.06 982.22 1044.56"/><path class="cls-2" d="M982.22,1044.56l-66.07,193.5h0l-59.29,173.66c15.89,1.46,32.13,2.24,48.74,2.24h135.63l66.07-193.49h245.77l66.06-175.91Z"/><path class="cls-3" d="M905.6,1238.06c-149.06,0-238.06-89-238.06-238.06s89-238.06,238.06-238.06h168.34L1139.09,586H905.6c-126.69,0-233.26,42.77-308.17,123.69C529.21,783.4,491.64,886.49,491.64,1000s37.57,216.6,105.79,290.28c65.09,70.3,154.1,111.77,259.43,121.44l59.29-173.66Z"/><polygon class="cls-4" points="1508.36 761.92 1073.94 761.92 1008.79 937.82 1443.86 937.82 1508.36 761.92"/></svg>